# xmcd
#
# Track frame offsets:
#	150
#	13542
#	24988
#	35802
#	46453
#	59280
#	70414
#	89495
#	100900
#	111735
#	123625
#	134600
#	147670
#	164219
#
# Disc length: 2427 seconds
#
# Revision: 3
# Processed by: cddbd v1.5.2PL0 Copyright (c) Steve Scherf et al.
# Submitted via: audiograbber 1.83.01
#
DISCID=df09790e
DTITLE=Various Artist - Lifetime Of Country Romance - Gentle On My Mind - Disc 1
DYEAR=2006
DGENRE=Country
TTITLE0=Glen Campbell - Gentle On My Mind
TTITLE1=Crystal Gayle - Don't It Make My Brown Eyes Blue
TTITLE2=Faron Young - Hello Walls
TTITLE3=Merle Haggard And The Strangers - Today I Started Loving You Again
TTITLE4=George Jones - She Thinks I Still Care
TTITLE5=Freddie Hart - Easy Loving
TTITLE6=Kenny Rogers - She Believes In Me
TTITLE7=Sonny James - Young Love
TTITLE8=Ferlin Husky - Gone
TTITLE9=Wanda Jackson - Right Or Wrong
TTITLE10=Buck Rogers - Together Again
TTITLE11=Conway Twitty - Happy Birthday Darlin'
TTITLE12=Kenny Rogers - You Decorated My Life
TTITLE13=Bobby Goldsboro - Honey
EXTD=
EXTT0=
EXTT1=
EXTT2=
EXTT3=
EXTT4=
EXTT5=
EXTT6=
EXTT7=
EXTT8=
EXTT9=
EXTT10=
EXTT11=
EXTT12=
EXTT13=
PLAYORDER=
